<svg width="24" height="24" viewBox="0 0 24 24" fill="none" xmlns="http://www.w3.org/2000/svg">
<path d="M13.25 3.25V4C16.1016 4.5793 18.25 7.10156 18.25 10.125V10.8594C18.25 12.6992 18.9258 14.4688 20.1445 15.8438L20.4336 16.168C20.7617 16.5391 20.8437 17.0625 20.6406 17.5117C20.4375 17.9609 19.9922 18.25 19.5 18.25H4.49999C4.0078 18.25 3.56136 17.9609 3.35972 17.5117C3.15808 17.0625 3.23873 16.5391 3.56577 16.168L3.85546 15.8438C5.07577 14.4688 5.74999 12.6992 5.74999 10.8594V10.125C5.74999 7.10156 7.86327 4.5793 10.75 4V3.25C10.75 2.55977 11.3086 2 12 2C12.6914 2 13.25 2.55977 13.25 3.25ZM12 22C11.3359 22 10.6992 21.7383 10.2305 21.2695C9.76171 20.8008 9.49999 20.1289 9.49999 19.5H14.5C14.5 20.1289 14.2383 20.8008 13.7695 21.2695C13.3008 21.7383 12.6289 22 12 22Z" fill="#1E1E1E"/>
</svg>
