<svg width="40" height="40" viewBox="0 0 40 40" fill="none" xmlns="http://www.w3.org/2000/svg">
<g clip-path="url(#clip0_79_4156)">
<path d="M9.13471 3.31976C8.98713 3.12991 8.80084 2.97364 8.58822 2.86132C8.3756 2.74901 8.14151 2.68321 7.90151 2.66832C7.66151 2.65342 7.42108 2.68976 7.1962 2.77492C6.97132 2.86008 6.76714 2.99212 6.59721 3.16226L4.01221 5.74976C2.80471 6.95976 2.35971 8.67226 2.88721 10.1748C5.07656 16.3937 8.63795 22.04 13.3072 26.6948C17.962 31.364 23.6083 34.9253 29.8272 37.1148C31.3297 37.6423 33.0422 37.1973 34.2522 35.9898L36.8372 33.4048C37.0074 33.2348 37.1394 33.0306 37.2246 32.8058C37.3097 32.5809 37.3461 32.3405 37.3312 32.1005C37.3163 31.8605 37.2505 31.6264 37.1382 31.4138C37.0258 31.2011 36.8696 31.0148 36.6797 30.8673L30.9122 26.3823C30.7094 26.225 30.4735 26.1158 30.2223 26.0629C29.9711 26.0101 29.7112 26.015 29.4622 26.0773L23.9872 27.4448C23.2564 27.6274 22.4908 27.6177 21.7648 27.4166C21.0389 27.2155 20.3774 26.8299 19.8447 26.2973L13.7047 20.1548C13.1716 19.6224 12.7855 18.961 12.584 18.235C12.3825 17.5091 12.3724 16.7433 12.5547 16.0123L13.9247 10.5373C13.987 10.2883 13.9919 10.0283 13.939 9.77717C13.8862 9.52599 13.777 9.29008 13.6197 9.08726L9.13471 3.31976ZM4.70971 1.27726C5.1472 0.839635 5.67278 0.500087 6.25156 0.281164C6.83034 0.0622412 7.44907 -0.0310472 8.06667 0.00749353C8.68426 0.0460342 9.2866 0.215522 9.83367 0.504703C10.3807 0.793883 10.86 1.19614 11.2397 1.68476L15.7247 7.44976C16.5472 8.50726 16.8372 9.88476 16.5122 11.1848L15.1447 16.6598C15.074 16.9433 15.0778 17.2404 15.1558 17.522C15.2338 17.8037 15.3832 18.0604 15.5897 18.2673L21.7322 24.4098C21.9393 24.6166 22.1964 24.7664 22.4786 24.8444C22.7607 24.9223 23.0583 24.9259 23.3422 24.8548L28.8147 23.4873C29.4562 23.3269 30.1259 23.3144 30.7729 23.4508C31.42 23.5873 32.0275 23.869 32.5497 24.2748L38.3147 28.7598C40.3872 30.3723 40.5772 33.4348 38.7222 35.2873L36.1372 37.8723C34.2872 39.7223 31.5222 40.5348 28.9447 39.6273C22.3477 37.3061 16.3579 33.5294 11.4197 28.5773C6.46793 23.6398 2.69123 17.6509 0.369712 11.0548C-0.535287 8.47976 0.277213 5.71226 2.12721 3.86226L4.71221 1.27726H4.70971ZM27.4997 1.24976C27.4997 0.91824 27.6314 0.600298 27.8658 0.365877C28.1002 0.131457 28.4182 -0.000239123 28.7497 -0.000239123H38.7497C39.0812 -0.000239123 39.3992 0.131457 39.6336 0.365877C39.868 0.600298 39.9997 0.91824 39.9997 1.24976V11.2498C39.9997 11.5813 39.868 11.8992 39.6336 12.1336C39.3992 12.3681 39.0812 12.4998 38.7497 12.4998C38.4182 12.4998 38.1003 12.3681 37.8658 12.1336C37.6314 11.8992 37.4997 11.5813 37.4997 11.2498V4.26726L27.1347 14.6348C26.9 14.8695 26.5817 15.0013 26.2497 15.0013C25.9178 15.0013 25.5994 14.8695 25.3647 14.6348C25.13 14.4 24.9981 14.0817 24.9981 13.7498C24.9981 13.4178 25.13 13.0995 25.3647 12.8648L35.7322 2.49976H28.7497C28.4182 2.49976 28.1002 2.36806 27.8658 2.13364C27.6314 1.89922 27.4997 1.58128 27.4997 1.24976Z" fill="#1E1E1E"/>
</g>
<defs>
<clipPath id="clip0_79_4156">
<rect width="40" height="40" fill="white"/>
</clipPath>
</defs>
</svg>
