<svg width="48" height="41" viewBox="0 0 48 41" fill="none" xmlns="http://www.w3.org/2000/svg">
<path d="M43.2001 41C44.4731 41 45.694 40.52 46.5941 39.6657C47.4943 38.8114 48 37.6527 48 36.4444V25.3198C48 24.1116 47.4943 22.9528 46.5941 22.0985C45.694 21.2442 44.4731 20.7642 43.2001 20.7642H36.5378C36.5378 19.1652 36.6386 17.5617 36.8354 15.9627C37.133 14.268 37.6322 12.7601 38.3234 11.4436C39.0194 10.1224 39.9121 9.08833 41.0065 8.33211C42.0961 7.48478 43.4833 7.06111 45.1729 7.06111V0C42.3937 0 39.9649 0.564889 37.877 1.69467C35.8072 2.81299 34.0276 4.35717 32.6691 6.21378C31.3055 8.26065 30.3005 10.5037 29.6931 12.8558C29.0811 15.4514 28.7815 18.1045 28.8003 20.7642V36.4444C28.8003 37.6527 29.306 38.8114 30.2062 39.6657C31.1064 40.52 32.3272 41 33.6002 41H43.2001ZM14.4006 41C15.6736 41 16.8945 40.52 17.7946 39.6657C18.6948 38.8114 19.2005 37.6527 19.2005 36.4444V25.3198C19.2005 24.1116 18.6948 22.9528 17.7946 22.0985C16.8945 21.2442 15.6736 20.7642 14.4006 20.7642H7.7383C7.7383 19.1652 7.8391 17.5617 8.03589 15.9627C8.33349 14.268 8.83268 12.7601 9.52387 11.4436C10.2199 10.1224 11.1126 9.08833 12.207 8.33211C13.2966 7.48478 14.6838 7.06111 16.3733 7.06111V0C13.5942 0 11.1654 0.564889 9.07747 1.69467C7.00768 2.81299 5.22814 4.35717 3.86956 6.21378C2.50603 8.26065 1.50102 10.5037 0.893617 12.8558C0.28156 15.4514 -0.0179544 18.1045 0.000831721 20.7642V36.4444C0.000831721 37.6527 0.506536 38.8114 1.40669 39.6657C2.30685 40.52 3.52773 41 4.80075 41H14.4006Z" fill="#1E1E1E"/>
</svg>
