<svg width="184" height="87" viewBox="0 0 184 87" fill="none" xmlns="http://www.w3.org/2000/svg">
<path d="M2.15951 36.0589C3.57972 22.1631 3.02297 4.58503 20.1626 2.13236C28.3069 0.966903 38.6411 9.43276 41.1549 16.5496C43.24 22.4529 47.9372 29.0268 43.5371 35.1379C40.0809 39.938 34.0251 42.0545 28.4936 39.2748C12.7852 31.3809 28.3569 14.4895 38.7205 12.2946C52.8661 9.29876 81.8699 35.3337 74.8963 50.4527C68.9171 63.4157 56.7363 52.6516 60.1164 41.734C64.8712 26.3761 73.5221 22.2557 89.8024 29.5491C102.514 35.2439 106.999 52.968 103.722 64.7014C103.041 67.1382 103.02 82.1683 101.159 81.4575C82.8028 74.4439 97.8965 46.0985 111.806 43.2661C127.787 40.0117 143.994 36.9013 158.673 44.3772C166.566 48.3974 185.763 66.6457 180.521 59.5053C173.96 50.5696 165.913 37.8986 165.802 26.2533C165.768 22.7881 165.395 11.7252 166.223 22.2643C167.076 33.1183 167.574 42.6987 170.297 52.6744C170.903 54.8944 174.897 56.7039 176.587 58.084C178.018 59.253 171.063 59.9375 170.299 60.1744C163.696 62.2202 158.958 67.125 154.835 72.467C151.155 77.235 147.787 84.6696 143.371 84.4253" stroke="#4E98BF" stroke-width="4" stroke-linecap="round" stroke-linejoin="round"/>
</svg>
