<svg width="20" height="17" viewBox="0 0 20 17" fill="none" xmlns="http://www.w3.org/2000/svg">
<path d="M6.2825 16.2509C13.83 16.2509 17.9587 9.99712 17.9587 4.58337C17.9587 4.40837 17.9587 4.23087 17.9513 4.05587C18.7551 3.47397 19.4488 2.75356 20 1.92837C19.2491 2.25943 18.4535 2.47762 17.6388 2.57587C18.4969 2.06291 19.1397 1.25583 19.4475 0.304616C18.6412 0.782271 17.7588 1.11758 16.8387 1.29587C16.2202 0.637146 15.4018 0.200764 14.5101 0.0543133C13.6185 -0.092137 12.7034 0.0595183 11.9067 0.485788C11.1099 0.912058 10.476 1.58915 10.1031 2.41219C9.73012 3.23523 9.63897 4.15828 9.84375 5.03837C8.21218 4.95656 6.61602 4.5327 5.1588 3.79429C3.70159 3.05589 2.41586 2.01942 1.385 0.752116C0.861675 1.65597 0.701967 2.72512 0.938308 3.74245C1.17465 4.75978 1.78932 5.64903 2.6575 6.22962C2.00692 6.20751 1.37065 6.03282 0.8 5.71962V5.77587C0.801122 6.72272 1.12913 7.64014 1.72859 8.37307C2.32805 9.10599 3.16218 9.60946 4.09 9.79837C3.73783 9.89538 3.37404 9.94375 3.00875 9.94212C2.75123 9.9429 2.49423 9.91904 2.24125 9.87087C2.50348 10.6859 3.01409 11.3986 3.70156 11.909C4.38903 12.4194 5.21892 12.7019 6.075 12.7171C4.62069 13.8594 2.82425 14.4789 0.975 14.4759C0.649151 14.4772 0.323529 14.4585 0 14.4196C1.87689 15.6162 4.05662 16.2516 6.2825 16.2509Z" fill="#1E1E1E" fill-opacity="0.75"/>
</svg>
