<svg width="48" height="48" viewBox="0 0 48 48" fill="none" xmlns="http://www.w3.org/2000/svg">
<path d="M15.1003 43.0014C33.2091 43.0014 43.1166 27.9949 43.1166 14.9852C43.1166 14.5633 43.1072 14.1321 43.0884 13.7102C45.0158 12.3164 46.679 10.59 48 8.61206C46.205 9.41066 44.2993 9.93223 42.3478 10.1589C44.4026 8.92728 45.9411 6.99241 46.6781 4.713C44.7451 5.85858 42.6312 6.66669 40.4269 7.10269C38.9417 5.52459 36.978 4.4797 34.8394 4.12957C32.7008 3.77944 30.5064 4.14357 28.5955 5.16566C26.6846 6.18775 25.1636 7.81088 24.2677 9.78409C23.3718 11.7573 23.1509 13.9707 23.6391 16.0821C19.725 15.8856 15.8959 14.8689 12.4 13.0977C8.90405 11.3265 5.81939 8.84034 3.34594 5.8005C2.0888 7.96795 1.70411 10.5328 2.27006 12.9736C2.83601 15.4145 4.31013 17.5484 6.39281 18.9414C4.82926 18.8918 3.29995 18.4708 1.93125 17.7133V17.8352C1.92985 20.1098 2.7162 22.3146 4.15662 24.075C5.59704 25.8354 7.60265 27.0426 9.8325 27.4914C8.38411 27.8877 6.86396 27.9455 5.38969 27.6602C6.01891 29.6163 7.24315 31.3272 8.89154 32.5541C10.5399 33.781 12.5302 34.4627 14.5847 34.5039C11.0968 37.2437 6.78835 38.7297 2.35313 38.7227C1.56657 38.7215 0.780798 38.6733 0 38.5783C4.50571 41.469 9.74706 43.0042 15.1003 43.0014Z" fill="#59C3C3"/>
</svg>
